<svg version="1.0" xmlns="http://www.w3.org/2000/svg" width="700.000000pt" height="493.000000pt" viewBox="0 0 700.000000 493.000000" preserveAspectRatio="xMidYMid meet">
<g transform="translate(0.000000,493.000000) scale(0.100000,-0.100000)" fill="#000000" stroke="none">
<path d="M260 4623 c0 -4 158 -166 352 -360 l352 -353 1068 0 1068 0 0 360 0
360 -1420 0 c-781 0 -1420 -3 -1420 -7z"></path>
<path d="M4732 3562 c-590 -587 -1073 -1070 -1073 -1073 1 -7 1432 -1435 1906
-1902 l240 -236 498 -1 c273 0 497 3 497 7 0 5 -478 486 -1062 1070 l-1063
1063 1063 1063 c584 584 1062 1065 1062 1070 0 4 -224 7 -497 7 l-498 0 -1073
-1068z"></path>
<path d="M260 2485 l0 -355 1420 0 1420 0 0 355 0 355 -1420 0 -1420 0 0 -355z"></path>
<path d="M612 744 c-331 -306 -352 -327 -352 -360 l0 -34 1420 0 1420 0 0 360
0 360 -1068 0 -1068 0 -352 -326z"></path>
</g>
</svg>